<mxfile host="app.diagrams.net" modified="2024-06-06T12:06:28.148Z" agent="Mozilla/5.0 (Windows NT 10.0; Win64; x64) AppleWebKit/537.36 (KHTML, like Gecko) Chrome/122.0.0.0 YaBrowser/24.4.0.0 Safari/537.36" version="24.4.15" etag="2ogw0cKxB2lX4CoNoSi7" type="github">
  <diagram name="Страница — 1" id="h2b7gbP6hVtcTNXQ3t3j">
    <mxGraphModel>
      <root>
        <mxCell id="0" />
        <mxCell id="1" parent="0" />
      </root>
    </mxGraphModel>
  </diagram>
</mxfile>
